<svg width="32" height="32" viewBox="0 0 32 32" fill="none" xmlns="http://www.w3.org/2000/svg">
<path d="M13.8508 21.2179C13.7313 20.7549 13.49 20.3323 13.1518 19.9941C12.8137 19.656 12.3911 19.4146 11.928 19.2951L3.71902 17.1783C3.57896 17.1386 3.4557 17.0542 3.36793 16.9381C3.28015 16.8219 3.23267 16.6803 3.23267 16.5347C3.23267 16.3891 3.28015 16.2475 3.36793 16.1314C3.4557 16.0152 3.57896 15.9309 3.71902 15.8911L11.928 13.773C12.3909 13.6536 12.8134 13.4125 13.1515 13.0746C13.4897 12.7366 13.7311 12.3143 13.8508 11.8515L15.9676 3.64253C16.0069 3.50193 16.0912 3.37805 16.2075 3.28981C16.3239 3.20157 16.4659 3.15381 16.6119 3.15381C16.7579 3.15381 16.8999 3.20157 17.0162 3.28981C17.1325 3.37805 17.2168 3.50193 17.2561 3.64253L19.3716 11.8515C19.4911 12.3146 19.7324 12.7372 20.0706 13.0753C20.4087 13.4135 20.8313 13.6548 21.2944 13.7743L29.5034 15.8898C29.6445 15.9287 29.769 16.0129 29.8578 16.1294C29.9465 16.2459 29.9945 16.3883 29.9945 16.5347C29.9945 16.6812 29.9465 16.8235 29.8578 16.94C29.769 17.0565 29.6445 17.1407 29.5034 17.1797L21.2944 19.2951C20.8313 19.4146 20.4087 19.656 20.0706 19.9941C19.7324 20.3323 19.4911 20.7549 19.3716 21.2179L17.2548 29.4269C17.2155 29.5675 17.1312 29.6914 17.0149 29.7796C16.8985 29.8679 16.7565 29.9156 16.6105 29.9156C16.4645 29.9156 16.3225 29.8679 16.2062 29.7796C16.0899 29.6914 16.0056 29.5675 15.9663 29.4269L13.8508 21.2179Z" stroke="#1D7AFF" stroke-width="2.67612" stroke-linecap="round" stroke-linejoin="round"/>
<path d="M27.3154 4.49219V9.84442" stroke="#1D7AFF" stroke-width="2.67612" stroke-linecap="round" stroke-linejoin="round"/>
<path d="M29.9916 7.16846H24.6394" stroke="#1D7AFF" stroke-width="2.67612" stroke-linecap="round" stroke-linejoin="round"/>
<path d="M5.90674 23.2251V25.9012" stroke="#1D7AFF" stroke-width="2.67612" stroke-linecap="round" stroke-linejoin="round"/>
<path d="M7.24472 24.563H4.5686" stroke="#1D7AFF" stroke-width="2.67612" stroke-linecap="round" stroke-linejoin="round"/>
</svg>
